<?xml version="1.0" encoding="utf-8"?>
<!-- Generator: Adobe Illustrator 25.4.1, SVG Export Plug-In . SVG Version: 6.00 Build 0)  -->
<svg version="1.1"
	 id="Layer_1" xmlns:cc="http://creativecommons.org/ns#" xmlns:dc="http://purl.org/dc/elements/1.1/" xmlns:inkscape="http://www.inkscape.org/namespaces/inkscape" xmlns:rdf="http://www.w3.org/1999/02/22-rdf-syntax-ns#" xmlns:sodipodi="http://sodipodi.sourceforge.net/DTD/sodipodi-0.dtd" xmlns:svg="http://www.w3.org/2000/svg"
	 xmlns="http://www.w3.org/2000/svg" xmlns:xlink="http://www.w3.org/1999/xlink" x="0px" y="0px" viewBox="0 0 16.9 16.8"
	 style="enable-background:new 0 0 16.9 16.8;" xml:space="preserve">
<style type="text/css">
	.st0{fill:#FFFFFF;}
</style>
<g transform="translate(0,6.35)">
	<path class="st0" d="M7.2-4.3L7.2-4.3L7.2-4.3L7.2-4.3C7.1-4.3,7.1-4.3,7.2-4.3c-1.6,1-2.5,2.7-2.5,4.4l0,0c0,0.7,0.2,1.4,0.4,2.1
		C4.6,2.6,4.2,3.3,4.2,4C3,4.1,2.1,5,2.1,6.3s1,2.2,2.2,2.2h4.5c0.5,0,1-0.2,1.3-0.4C10.7,7.7,11,7,11,6.3l0,0
		c0-0.4-0.1-0.7-0.2-1.1c1.8-0.3,3.4-1.7,4-3.5c0-0.1,0-0.2-0.2-0.2c-0.1,0-0.2,0-0.2,0c-0.7,0.5-1.7,0.7-2.6,0.7
		c-1.2,0-2.5-0.5-3.3-1.4C7.6,0,7.1-1.3,7.1-2.5l0,0l0,0c0-0.5,0.1-1,0.2-1.4C7.5-4.1,7.4-4.2,7.2-4.3L7.2-4.3L7.2-4.3z M6.8-3.4
		L6.8-3.4c0,0.2-0.1,0.6-0.1,0.9l0,0c0,1.3,0.6,2.7,1.5,3.7c1,1,2.2,1.5,3.7,1.5l0,0c0.7,0,1.6-0.2,2.2-0.5c-0.7,1.4-2,2.5-3.7,2.7
		C10.1,4.4,9.6,4.1,9.1,4l0,0c0,0-0.1,0-0.2,0C9,3,8.3,2.1,7.4,1.9l0,0l0,0C7.1,1.7,6.9,1.7,6.6,1.7l0,0l0,0l0,0H6.5
		C6.1,1.7,5.8,1.8,5.6,2C5.3,1.4,5.2,0.7,5.2,0.1C5.2-1.3,5.8-2.6,6.8-3.4L6.8-3.4z M6.6,2.1L6.6,2.1L6.6,2.1c0.2,0,0.5,0.1,0.7,0.1
		l0,0l0,0c0.8,0.3,1.3,1.1,1.3,1.9v0.1l0,0l0,0l0,0l0,0l0,0l0,0c0,0.1,0.1,0.2,0.2,0.2l0,0h0.1c0.1,0,0.1,0,0.2,0l0,0l0,0
		c0.5,0.1,0.9,0.3,1.2,0.7c0,0,0,0,0.1,0.1c0.2,0.3,0.3,0.7,0.3,1.1c0,1-0.8,1.8-1.8,1.8H4.3c-1,0-1.8-0.8-1.8-1.8l0,0
		c0-1,0.8-1.8,1.8-1.8h0.1l0,0c0.1,0,0.2-0.1,0.2-0.2V4.1c0-0.7,0.3-1.3,0.9-1.7l0,0c0.2-0.2,0.6-0.2,0.9-0.2
		C6.6,2.1,6.6,2.1,6.6,2.1L6.6,2.1z"/>
</g>
</svg>
